<svg xmlns="http://www.w3.org/2000/svg" width="50" height="37.874" viewBox="0 0 50 37.874">
  <path id="cloth" d="M51.771,12.885a1.2,1.2,0,0,1-.212.958l-6,8.934a1.335,1.335,0,0,1-1.082.535,3.106,3.106,0,0,1-.545-.056l-4.812-1.181V43.241A1.07,1.07,0,0,1,38,44.354H14.609A1.07,1.07,0,0,1,13.5,43.241V22.075L9.173,23.267a1.018,1.018,0,0,1-1.214-.479L2,13.877a1.123,1.123,0,0,1-.156-.936,1.086,1.086,0,0,1,.613-.713L14.609,6.48h5.57a1.064,1.064,0,0,1,1.114,1.114c0,2.295,3.219,3.921,5.514,3.921S32.433,9.9,32.433,7.594A1.07,1.07,0,0,1,33.547,6.48h5.57l12.031,5.637a1.2,1.2,0,0,1,.624.769Z" transform="translate(-1.802 -6.48)"/>
</svg>
